<svg width="968" height="907" xmlns="http://www.w3.org/2000/svg" xmlns:xlink="http://www.w3.org/1999/xlink" xml:space="preserve" overflow="hidden"><defs><clipPath id="clip0"><rect x="1727" y="770" width="968" height="907"/></clipPath></defs><g clip-path="url(#clip0)" transform="translate(-1727 -770)"><path d="M1909.43 836.5C1993.93 836.465 2062.46 898.221 2062.5 974.437 2062.54 1050.65 1994.07 1112.47 1909.57 1112.5 1909.55 1112.5 1909.52 1112.5 1909.5 1112.5L1909.5 974.5Z" stroke="#262626" stroke-width="4.58333" stroke-linecap="butt" stroke-linejoin="miter" stroke-miterlimit="8" stroke-opacity="1" fill="#262626" fill-rule="evenodd" fill-opacity="1"/><path d="M1908.87 1116.5C2065.99 1116.44 2193.43 1231.22 2193.5 1372.88 2193.57 1514.54 2066.26 1629.44 1909.13 1629.5 1909.09 1629.5 1909.04 1629.5 1909 1629.5L1909 1373Z" stroke="#262626" stroke-width="4.58333" stroke-linecap="butt" stroke-linejoin="miter" stroke-miterlimit="8" stroke-opacity="1" fill="#262626" fill-rule="evenodd" fill-opacity="1"/><path d="M2383.93 831.501C2468.71 831.466 2537.46 893.446 2537.5 969.937 2537.54 1046.43 2468.85 1108.47 2384.07 1108.5 2384.05 1108.5 2384.02 1108.5 2384 1108.5L2384 970Z" stroke="#262626" stroke-width="4.58333" stroke-linecap="butt" stroke-linejoin="miter" stroke-miterlimit="8" stroke-opacity="1" fill="#262626" fill-rule="evenodd" fill-opacity="1"/><path d="M2384.5 1629.5 2384.5 1108.5 2690.5 1629.5Z" stroke="#262626" stroke-width="4.58333" stroke-linecap="butt" stroke-linejoin="miter" stroke-miterlimit="8" stroke-opacity="1" fill="#262626" fill-rule="evenodd" fill-opacity="1"/><rect x="1733.5" y="774.5" width="176" height="897" stroke="#000000" stroke-width="4.58333" stroke-linecap="butt" stroke-linejoin="miter" stroke-miterlimit="8" stroke-opacity="1" fill="#000000" fill-opacity="1"/><rect x="2208.5" y="774.5" width="177" height="897" stroke="#000000" stroke-width="4.58333" stroke-linecap="butt" stroke-linejoin="miter" stroke-miterlimit="8" stroke-opacity="1" fill="#000000" fill-opacity="1"/></g></svg><svg width="968" height="907" xmlns="http://www.w3.org/2000/svg" xmlns:xlink="http://www.w3.org/1999/xlink" xml:space="preserve" overflow="hidden"><defs><clipPath id="clip0"><rect x="1727" y="770" width="968" height="907"/></clipPath></defs><g clip-path="url(#clip0)" transform="translate(-1727 -770)"><path d="M1909.43 836.5C1993.93 836.465 2062.46 898.221 2062.5 974.437 2062.54 1050.65 1994.07 1112.47 1909.57 1112.5 1909.55 1112.5 1909.52 1112.5 1909.5 1112.5L1909.5 974.5Z" stroke="#262626" stroke-width="4.58333" stroke-linecap="butt" stroke-linejoin="miter" stroke-miterlimit="8" stroke-opacity="1" fill="#262626" fill-rule="evenodd" fill-opacity="1"/><path d="M1908.87 1116.5C2065.99 1116.44 2193.43 1231.22 2193.5 1372.88 2193.57 1514.54 2066.26 1629.44 1909.13 1629.5 1909.09 1629.5 1909.04 1629.5 1909 1629.5L1909 1373Z" stroke="#262626" stroke-width="4.58333" stroke-linecap="butt" stroke-linejoin="miter" stroke-miterlimit="8" stroke-opacity="1" fill="#262626" fill-rule="evenodd" fill-opacity="1"/><path d="M2383.93 831.501C2468.71 831.466 2537.46 893.446 2537.5 969.937 2537.54 1046.43 2468.85 1108.47 2384.07 1108.5 2384.05 1108.5 2384.02 1108.5 2384 1108.5L2384 970Z" stroke="#262626" stroke-width="4.58333" stroke-linecap="butt" stroke-linejoin="miter" stroke-miterlimit="8" stroke-opacity="1" fill="#262626" fill-rule="evenodd" fill-opacity="1"/><path d="M2384.5 1629.5 2384.5 1108.5 2690.5 1629.5Z" stroke="#262626" stroke-width="4.58333" stroke-linecap="butt" stroke-linejoin="miter" stroke-miterlimit="8" stroke-opacity="1" fill="#262626" fill-rule="evenodd" fill-opacity="1"/><rect x="1733.5" y="774.5" width="176" height="897" stroke="#000000" stroke-width="4.58333" stroke-linecap="butt" stroke-linejoin="miter" stroke-miterlimit="8" stroke-opacity="1" fill="#000000" fill-opacity="1"/><rect x="2208.5" y="774.5" width="177" height="897" stroke="#000000" stroke-width="4.58333" stroke-linecap="butt" stroke-linejoin="miter" stroke-miterlimit="8" stroke-opacity="1" fill="#000000" fill-opacity="1"/></g></svg>