<svg width="1073" height="1187" xmlns="http://www.w3.org/2000/svg" xmlns:xlink="http://www.w3.org/1999/xlink" xml:space="preserve" overflow="hidden"><defs><clipPath id="clip0"><rect x="3217" y="770" width="1073" height="1187"/></clipPath></defs><g clip-path="url(#clip0)" transform="translate(-3217 -770)"><path d="M3396.93 836.5C3481.71 836.465 3550.46 898.222 3550.5 974.437 3550.54 1050.65 3481.85 1112.47 3397.07 1112.5 3397.05 1112.5 3397.02 1112.5 3397 1112.5L3397 974.5Z" stroke="#AFABAB" stroke-width="4.58333" stroke-linecap="butt" stroke-linejoin="miter" stroke-miterlimit="8" stroke-opacity="1" fill="#AFABAB" fill-rule="evenodd" fill-opacity="1"/><path d="M3396.87 1116.5C3553.99 1116.44 3681.43 1231.22 3681.5 1372.88 3681.57 1514.54 3554.26 1629.43 3397.13 1629.5 3397.09 1629.5 3397.04 1629.5 3397 1629.5L3397 1373Z" stroke="#AFABAB" stroke-width="4.58333" stroke-linecap="butt" stroke-linejoin="miter" stroke-miterlimit="8" stroke-opacity="1" fill="#AFABAB" fill-rule="evenodd" fill-opacity="1"/><path d="M3871.43 831.5C3955.93 831.465 4024.46 893.445 4024.5 969.936 4024.54 1046.43 3956.07 1108.47 3871.57 1108.5 3871.55 1108.5 3871.52 1108.5 3871.5 1108.5L3871.5 970Z" stroke="#AFABAB" stroke-width="4.58333" stroke-linecap="butt" stroke-linejoin="miter" stroke-miterlimit="8" stroke-opacity="1" fill="#AFABAB" fill-rule="evenodd" fill-opacity="1"/><path d="M3871.5 1629.5 3871.5 1108.5 4178.5 1629.5Z" stroke="#AFABAB" stroke-width="4.58333" stroke-linecap="butt" stroke-linejoin="miter" stroke-miterlimit="8" stroke-opacity="1" fill="#AFABAB" fill-rule="evenodd" fill-opacity="1"/><rect x="3220.5" y="774.5" width="177" height="897" stroke="#7F7F7F" stroke-width="4.58333" stroke-linecap="butt" stroke-linejoin="miter" stroke-miterlimit="8" stroke-opacity="1" fill="#7F7F7F" fill-opacity="1"/><rect x="3696.5" y="774.5" width="176" height="897" stroke="#7F7F7F" stroke-width="4.58333" stroke-linecap="butt" stroke-linejoin="miter" stroke-miterlimit="8" stroke-opacity="1" fill="#7F7F7F" fill-opacity="1"/><text fill="#E7E6E6" fill-opacity="1" font-family="Arial,Arial_MSFontService,sans-serif" font-style="normal" font-variant="normal" font-weight="700" font-stretch="normal" font-size="83" text-anchor="start" direction="ltr" writing-mode="lr-tb" unicode-bidi="normal" text-decoration="none" transform="matrix(1 0 0 1 3278.94 1789)">C</text><text fill="#FFFFFF" fill-opacity="0" font-family="Arial,Arial_MSFontService,sans-serif" font-style="normal" font-variant="normal" font-weight="700" font-stretch="normal" font-size="83" text-anchor="start" direction="ltr" writing-mode="lr-tb" unicode-bidi="normal" text-decoration="none" transform="matrix(1 0 0 1 3338.52 1789)">__</text><text fill="#E7E6E6" fill-opacity="1" font-family="Arial,Arial_MSFontService,sans-serif" font-style="normal" font-variant="normal" font-weight="700" font-stretch="normal" font-size="83" text-anchor="start" direction="ltr" writing-mode="lr-tb" unicode-bidi="normal" text-decoration="none" transform="matrix(1 0 0 1 3430.19 1789)">A</text><text fill="#FFFFFF" fill-opacity="0" font-family="Arial,Arial_MSFontService,sans-serif" font-style="normal" font-variant="normal" font-weight="700" font-stretch="normal" font-size="83" text-anchor="start" direction="ltr" writing-mode="lr-tb" unicode-bidi="normal" text-decoration="none" transform="matrix(1 0 0 1 3489.77 1789)">__</text><text fill="#E7E6E6" fill-opacity="1" font-family="Arial,Arial_MSFontService,sans-serif" font-style="normal" font-variant="normal" font-weight="700" font-stretch="normal" font-size="83" text-anchor="start" direction="ltr" writing-mode="lr-tb" unicode-bidi="normal" text-decoration="none" transform="matrix(1 0 0 1 3581.44 1789)">P</text><text fill="#FFFFFF" fill-opacity="0" font-family="Arial,Arial_MSFontService,sans-serif" font-style="normal" font-variant="normal" font-weight="700" font-stretch="normal" font-size="83" text-anchor="start" direction="ltr" writing-mode="lr-tb" unicode-bidi="normal" text-decoration="none" transform="matrix(1 0 0 1 3636.44 1789)">__</text><text fill="#E7E6E6" fill-opacity="1" font-family="Arial,Arial_MSFontService,sans-serif" font-style="normal" font-variant="normal" font-weight="700" font-stretch="normal" font-size="83" text-anchor="start" direction="ltr" writing-mode="lr-tb" unicode-bidi="normal" text-decoration="none" transform="matrix(1 0 0 1 3728.1 1789)">I</text><text fill="#FFFFFF" fill-opacity="0" font-family="Arial,Arial_MSFontService,sans-serif" font-style="normal" font-variant="normal" font-weight="700" font-stretch="normal" font-size="83" text-anchor="start" direction="ltr" writing-mode="lr-tb" unicode-bidi="normal" text-decoration="none" transform="matrix(1 0 0 1 3751.02 1789)">__</text><text fill="#E7E6E6" fill-opacity="1" font-family="Arial,Arial_MSFontService,sans-serif" font-style="normal" font-variant="normal" font-weight="700" font-stretch="normal" font-size="83" text-anchor="start" direction="ltr" writing-mode="lr-tb" unicode-bidi="normal" text-decoration="none" transform="matrix(1 0 0 1 3842.69 1789)">T</text><text fill="#FFFFFF" fill-opacity="0" font-family="Arial,Arial_MSFontService,sans-serif" font-style="normal" font-variant="normal" font-weight="700" font-stretch="normal" font-size="83" text-anchor="start" direction="ltr" writing-mode="lr-tb" unicode-bidi="normal" text-decoration="none" transform="matrix(1 0 0 1 3893.1 1789)">__</text><text fill="#E7E6E6" fill-opacity="1" font-family="Arial,Arial_MSFontService,sans-serif" font-style="normal" font-variant="normal" font-weight="700" font-stretch="normal" font-size="83" text-anchor="start" direction="ltr" writing-mode="lr-tb" unicode-bidi="normal" text-decoration="none" transform="matrix(1 0 0 1 3984.77 1789)">A</text><text fill="#FFFFFF" fill-opacity="0" font-family="Arial,Arial_MSFontService,sans-serif" font-style="normal" font-variant="normal" font-weight="700" font-stretch="normal" font-size="83" text-anchor="start" direction="ltr" writing-mode="lr-tb" unicode-bidi="normal" text-decoration="none" transform="matrix(1 0 0 1 4044.35 1789)">__</text><text fill="#E7E6E6" fill-opacity="1" font-family="Arial,Arial_MSFontService,sans-serif" font-style="normal" font-variant="normal" font-weight="700" font-stretch="normal" font-size="83" text-anchor="start" direction="ltr" writing-mode="lr-tb" unicode-bidi="normal" text-decoration="none" transform="matrix(1 0 0 1 3682.27 1888)">L</text></g></svg>