<svg width="1178" height="1164" xmlns="http://www.w3.org/2000/svg" xmlns:xlink="http://www.w3.org/1999/xlink" xml:space="preserve" overflow="hidden"><defs><clipPath id="clip0"><rect x="-1306" y="641" width="1178" height="1164"/></clipPath><linearGradient x1="-717.5" y1="646" x2="-717.5" y2="1802" gradientUnits="userSpaceOnUse" spreadMethod="reflect" id="fill1"><stop offset="0" stop-color="#00CFEF" stop-opacity="1"/><stop offset="1" stop-color="#00FF00" stop-opacity="1"/></linearGradient></defs><g clip-path="url(#clip0)" transform="translate(1306 -641)"><path d="M-1303 766.941C-1303 700.147-1248.85 646-1182.06 646L-252.941 646C-186.147 646-132 700.147-132 766.941L-132 1681.06C-132 1747.85-186.147 1802-252.941 1802L-1182.06 1802C-1248.85 1802-1303 1747.85-1303 1681.06Z" fill="url(#fill1)" fill-rule="evenodd"/><path d="M-1023.07 835.5C-938.294 835.465-869.539 897.445-869.5 973.937-869.461 1050.43-938.154 1112.47-1022.93 1112.5-1022.95 1112.5-1022.98 1112.5-1023 1112.5L-1023 974Z" stroke="#262626" stroke-width="4.58333" stroke-linecap="butt" stroke-linejoin="miter" stroke-miterlimit="8" stroke-opacity="1" fill="#262626" fill-rule="evenodd" fill-opacity="1"/><path d="M-1023.13 1115.5C-866.005 1115.44-738.572 1230.22-738.5 1371.88-738.428 1513.54-865.745 1628.44-1022.87 1628.5-1022.91 1628.5-1022.96 1628.5-1023 1628.5L-1023 1372Z" stroke="#262626" stroke-width="4.58333" stroke-linecap="butt" stroke-linejoin="miter" stroke-miterlimit="8" stroke-opacity="1" fill="#262626" fill-rule="evenodd" fill-opacity="1"/><path d="M-548.57 831.5C-464.071 831.465-395.539 893.222-395.5 969.437-395.461 1045.65-463.93 1107.47-548.43 1107.5-548.453 1107.5-548.477 1107.5-548.5 1107.5L-548.5 969.5Z" stroke="#262626" stroke-width="4.58333" stroke-linecap="butt" stroke-linejoin="miter" stroke-miterlimit="8" stroke-opacity="1" fill="#262626" fill-rule="evenodd" fill-opacity="1"/><path d="M-548.5 1628.5-548.5 1107.5-242.5 1628.5Z" stroke="#262626" stroke-width="4.58333" stroke-linecap="butt" stroke-linejoin="miter" stroke-miterlimit="8" stroke-opacity="1" fill="#262626" fill-rule="evenodd" fill-opacity="1"/><rect x="-1199.5" y="773.5" width="176" height="898" stroke="#000000" stroke-width="4.58333" stroke-linecap="butt" stroke-linejoin="miter" stroke-miterlimit="8" stroke-opacity="1" fill="#000000" fill-opacity="1"/><rect x="-723.5" y="773.5" width="176" height="898" stroke="#000000" stroke-width="4.58333" stroke-linecap="butt" stroke-linejoin="miter" stroke-miterlimit="8" stroke-opacity="1" fill="#000000" fill-opacity="1"/></g></svg>