<svg width="1109" height="907" xmlns="http://www.w3.org/2000/svg" xmlns:xlink="http://www.w3.org/1999/xlink" xml:space="preserve" overflow="hidden"><defs><clipPath id="clip0"><rect x="-1255" y="770" width="1109" height="907"/></clipPath></defs><g clip-path="url(#clip0)" transform="translate(1255 -770)"><path d="M-1076.07 835.5C-991.295 835.465-922.539 897.445-922.5 973.937-922.461 1050.43-991.154 1112.47-1075.93 1112.5-1075.95 1112.5-1075.98 1112.5-1076 1112.5L-1076 974Z" stroke="#AFABAB" stroke-width="4.58333" stroke-linecap="butt" stroke-linejoin="miter" stroke-miterlimit="8" stroke-opacity="1" fill="#AFABAB" fill-rule="evenodd" fill-opacity="1"/><path d="M-1076.13 1115.5C-919.005 1115.44-791.572 1230.22-791.5 1371.88-791.428 1513.54-918.745 1628.43-1075.87 1628.5-1075.91 1628.5-1075.96 1628.5-1076 1628.5L-1076 1372Z" stroke="#AFABAB" stroke-width="4.58333" stroke-linecap="butt" stroke-linejoin="miter" stroke-miterlimit="8" stroke-opacity="1" fill="#AFABAB" fill-rule="evenodd" fill-opacity="1"/><path d="M-467.07 831.5C-382.294 831.465-313.539 893.222-313.5 969.437-313.461 1045.65-382.154 1107.47-466.93 1107.5-466.953 1107.5-466.977 1107.5-467 1107.5L-467 969.5Z" stroke="#AFABAB" stroke-width="4.58333" stroke-linecap="butt" stroke-linejoin="miter" stroke-miterlimit="8" stroke-opacity="1" fill="#AFABAB" fill-rule="evenodd" fill-opacity="1"/><path d="M-467.5 1628.5-467.5 1107.5-160.5 1628.5Z" stroke="#AFABAB" stroke-width="4.58333" stroke-linecap="butt" stroke-linejoin="miter" stroke-miterlimit="8" stroke-opacity="1" fill="#AFABAB" fill-rule="evenodd" fill-opacity="1"/><rect x="-1252.5" y="773.5" width="177" height="898" stroke="#7F7F7F" stroke-width="4.58333" stroke-linecap="butt" stroke-linejoin="miter" stroke-miterlimit="8" stroke-opacity="1" fill="#7F7F7F" fill-opacity="1"/><rect x="-642.5" y="773.5" width="176" height="898" stroke="#7F7F7F" stroke-width="4.58333" stroke-linecap="butt" stroke-linejoin="miter" stroke-miterlimit="8" stroke-opacity="1" fill="#7F7F7F" fill-opacity="1"/></g></svg>