<svg width="1178" height="1164" xmlns="http://www.w3.org/2000/svg" xmlns:xlink="http://www.w3.org/1999/xlink" xml:space="preserve" overflow="hidden"><defs><clipPath id="clip0"><rect x="-1306" y="641" width="1178" height="1164"/></clipPath><linearGradient x1="-717.5" y1="646" x2="-717.5" y2="1802" gradientUnits="userSpaceOnUse" spreadMethod="reflect" id="fill1"><stop offset="0" stop-color="#00CFEF" stop-opacity="1"/><stop offset="1" stop-color="#00FF00" stop-opacity="1"/></linearGradient></defs><g clip-path="url(#clip0)" transform="translate(1306 -641)"><path d="M-1303 766.941C-1303 700.147-1248.85 646-1182.06 646L-252.941 646C-186.147 646-132 700.147-132 766.941L-132 1681.06C-132 1747.85-186.147 1802-252.941 1802L-1182.06 1802C-1248.85 1802-1303 1747.85-1303 1681.06Z" fill="url(#fill1)" fill-rule="evenodd"/><path d="M-947.07 835.5C-862.294 835.465-793.539 897.446-793.5 973.937-793.461 1050.43-862.154 1112.47-946.929 1112.5-946.953 1112.5-946.976 1112.5-947 1112.5L-947 974Z" stroke="#262626" stroke-width="4.58333" stroke-linecap="butt" stroke-linejoin="miter" stroke-miterlimit="8" stroke-opacity="1" fill="#262626" fill-rule="evenodd" fill-opacity="1"/><path d="M-947.13 1115.5C-790.005 1115.44-662.572 1230.22-662.5 1371.88-662.428 1513.54-789.745 1628.44-946.87 1628.5-946.913 1628.5-946.956 1628.5-947 1628.5L-947 1372Z" stroke="#262626" stroke-width="4.58333" stroke-linecap="butt" stroke-linejoin="miter" stroke-miterlimit="8" stroke-opacity="1" fill="#262626" fill-rule="evenodd" fill-opacity="1"/><path d="M-472.07 831.5C-387.295 831.465-318.539 893.222-318.5 969.437-318.462 1045.65-387.155 1107.47-471.93 1107.5-471.954 1107.5-471.977 1107.5-472 1107.5L-472 969.5Z" stroke="#262626" stroke-width="4.58333" stroke-linecap="butt" stroke-linejoin="miter" stroke-miterlimit="8" stroke-opacity="1" fill="#262626" fill-rule="evenodd" fill-opacity="1"/><path d="M-472.5 1628.5-472.5 1107.5-165.5 1628.5Z" stroke="#262626" stroke-width="4.58333" stroke-linecap="butt" stroke-linejoin="miter" stroke-miterlimit="8" stroke-opacity="1" fill="#262626" fill-rule="evenodd" fill-opacity="1"/><rect x="-1123.5" y="773.5" width="177" height="898" stroke="#000000" stroke-width="4.58333" stroke-linecap="butt" stroke-linejoin="miter" stroke-miterlimit="8" stroke-opacity="1" fill="#000000" fill-opacity="1"/><rect x="-647.5" y="773.5" width="177" height="898" stroke="#000000" stroke-width="4.58333" stroke-linecap="butt" stroke-linejoin="miter" stroke-miterlimit="8" stroke-opacity="1" fill="#000000" fill-opacity="1"/></g></svg>